<?xml version="1.0" standalone="no"?>
<!DOCTYPE svg PUBLIC "-//W3C//DTD SVG 1.0//EN" "http://www.w3.org/TR/2001/REC-SVG-20010904/DTD/svg10.dtd">
<svg xmlns="http://www.w3.org/2000/svg" xmlns:xlink="http://www.w3.org/1999/xlink" id="body_1" width="80" height="90">

<g transform="matrix(0.46511632 0 0 0.46511632 -0 5)">
	<g>
        <path d="M152 76C 152 94.2254 145.55635 109.78175 132.66905 122.66905C 119.78175 135.55637 104.2254 142 86 142C 67.774605 142 52.218254 135.55637 39.33095 122.66905C 26.443651 109.78175 20 94.2254 20 76C 20 57.774605 26.443651 42.218254 39.33095 29.330952C 52.218254 16.443651 67.774605 10 86 10C 104.2254 10 119.78175 16.443651 132.66905 29.330952C 145.55635 42.218254 152 57.774605 152 76C 152 76.76802 151.9866 77.53581 151.9598 78.30337" stroke="none" fill="#FFFFFF" fill-rule="nonzero" />
        <path d="M104.433 90.2861L96.0452 81.8984C 98.0646 79.21 99.1547 75.9378 99.151 72.5755C 99.151 63.9872 92.1638 57 83.5755 57C 74.9872 57 68 63.9872 68 72.5755C 68 81.1638 74.9872 88.151 83.5755 88.151C 86.9378 88.1547 90.21 87.0646 92.8984 85.0452L92.8984 85.0452L101.286 93.4329C 101.711 93.8125 102.264 94.0151 102.834 93.9991C 103.403 93.9832 103.945 93.7499 104.347 93.3472C 104.75 92.9445 104.983 92.403 104.999 91.8337C 105.015 91.2644 104.812 90.7107 104.433 90.2861zM72.4501 72.5755C 72.4501 70.3751 73.1026 68.2242 74.3251 66.3946C 75.5476 64.565 77.2851 63.1391 79.318 62.297C 81.3509 61.455 83.5879 61.2346 85.746 61.6639C 87.9041 62.0932 89.8864 63.1528 91.4423 64.7087C 92.9983 66.2646 94.0578 68.247 94.4871 70.4051C 94.9164 72.5632 94.6961 74.8001 93.854 76.833C 93.012 78.8659 91.586 80.6035 89.7564 81.8259C 87.9269 83.0484 85.7759 83.7009 83.5755 83.7009C 80.626 83.6974 77.7982 82.5241 75.7126 80.4384C 73.627 78.3528 72.4537 75.5251 72.4501 72.5755z" stroke="none" fill="#CDA274" fill-rule="nonzero" />
	</g>
</g>
</svg>